<?xml version="1.0" encoding="UTF-8"?><svg xmlns="http://www.w3.org/2000/svg" viewBox="0 0 260.63 105.38"><defs><style>.d{font-family:Cousine-Bold, Cousine;font-size:26.26px;}.d,.e{fill:#2d2d2d;}</style></defs><g id="a"/><g id="b"><g id="c"><g><g><circle class="e" cx="47" cy="46.94" r="4.25"/><path class="e" d="M48.97,0l27.5,48.19,15.92-28.35c-1.9-2.49-4.24-5.06-7.1-7.49C72.04,1.08,56.1,0,48.97,0Z"/><path class="e" d="M4.73,29.61l55.48,.12L43.54,1.82c-3.11,.41-6.49,1.16-10.03,2.44C17.14,10.14,8.28,23.43,4.73,29.61Z"/><path class="e" d="M100.1,77.02l-55.47-.94,16.26,28.16c3.11-.37,6.51-1.07,10.07-2.29,16.45-5.65,25.51-18.8,29.15-24.93Z"/><path class="e" d="M56.49,105.37L28.07,57.72l-15.37,28.65c1.95,2.45,4.34,4.97,7.25,7.35,13.47,11.01,29.42,11.78,36.55,11.64Z"/><path class="e" d="M8.02,81.82l28.36-47.69-32.52,.13c-1.23,2.88-2.31,6.18-3.01,9.87-3.26,17.09,3.65,31.48,7.17,37.68Z"/></g><text class="d" transform="translate(118.81 30.75)"><tspan x="0" y="0">Click,</tspan><tspan x="0" y="31.51">Click,</tspan><tspan x="0" y="63.02">Creatives</tspan></text></g></g></g></svg>